<svg width="23" height="22" viewBox="0 0 23 22" fill="none" xmlns="http://www.w3.org/2000/svg">
<g clip-path="url(#clip0_9959_33693)">
<path d="M19.7412 6.55418C19.4628 6.42877 19.1538 6.38798 18.8524 6.43688C18.5511 6.48577 18.2707 6.62219 18.0462 6.82918L16.0764 8.66251V7.33334C16.0764 6.604 15.7868 5.90452 15.2713 5.3888C14.7559 4.87307 14.0567 4.58334 13.3278 4.58334H5.08188C4.3529 4.58334 3.65377 4.87307 3.13831 5.3888C2.62284 5.90452 2.33325 6.604 2.33325 7.33334V14.6667C2.33325 15.396 2.62284 16.0955 3.13831 16.6112C3.65377 17.1269 4.3529 17.4167 5.08188 17.4167H13.3278C14.0567 17.4167 14.7559 17.1269 15.2713 16.6112C15.7868 16.0955 16.0764 15.396 16.0764 14.6667V13.3375L18.0554 15.1708C18.3467 15.4347 18.7252 15.5816 19.1182 15.5833C19.3363 15.5828 19.5518 15.536 19.7504 15.4458C20.0206 15.3365 20.2521 15.149 20.4153 14.9073C20.5785 14.6657 20.666 14.3808 20.6666 14.0892V7.91084C20.6653 7.61814 20.5764 7.33253 20.4115 7.09076C20.2466 6.84898 20.0132 6.66211 19.7412 6.55418Z" fill="white"/>
</g>
<defs>
<clipPath id="clip0_9959_33693">
<rect width="22" height="22" fill="white" transform="translate(0.5)"/>
</clipPath>
</defs>
</svg>
