<svg width="23" height="22" viewBox="0 0 23 22" fill="none" xmlns="http://www.w3.org/2000/svg">
<path d="M8.74992 20.1667H14.2499C18.8333 20.1667 20.6666 18.3333 20.6666 13.75V8.25001C20.6666 3.66668 18.8333 1.83334 14.2499 1.83334H8.74992C4.16659 1.83334 2.33325 3.66668 2.33325 8.25001V13.75C2.33325 18.3333 4.16659 20.1667 8.74992 20.1667Z" stroke="white" stroke-width="1.5" stroke-linecap="round" stroke-linejoin="round"/>
<path d="M6.91675 7.5625C7.83341 8.47917 9.32758 8.47917 10.2534 7.5625" stroke="white" stroke-width="1.5" stroke-miterlimit="10" stroke-linecap="round" stroke-linejoin="round"/>
<path d="M12.7466 7.5625C13.6632 8.47917 15.1574 8.47917 16.0832 7.5625" stroke="white" stroke-width="1.5" stroke-miterlimit="10" stroke-linecap="round" stroke-linejoin="round"/>
<path d="M8.2 11.9167H14.8C15.2583 11.9167 15.625 12.2834 15.625 12.7417C15.625 15.0242 13.7825 16.8667 11.5 16.8667C9.2175 16.8667 7.375 15.0242 7.375 12.7417C7.375 12.2834 7.74167 11.9167 8.2 11.9167Z" stroke="white" stroke-width="1.5" stroke-miterlimit="10" stroke-linecap="round" stroke-linejoin="round"/>
</svg>
