<svg width="23" height="22" viewBox="0 0 23 22" fill="none" xmlns="http://www.w3.org/2000/svg">
<path d="M8.74992 20.1667H14.2499C18.8333 20.1667 20.6666 18.3333 20.6666 13.75V8.25001C20.6666 3.66668 18.8333 1.83334 14.2499 1.83334H8.74992C4.16659 1.83334 2.33325 3.66668 2.33325 8.25001V13.75C2.33325 18.3333 4.16659 20.1667 8.74992 20.1667Z" stroke="white" stroke-width="1.5" stroke-linecap="round" stroke-linejoin="round"/>
<path d="M8.75008 9.16667C9.7626 9.16667 10.5834 8.34586 10.5834 7.33333C10.5834 6.32081 9.7626 5.5 8.75008 5.5C7.73756 5.5 6.91675 6.32081 6.91675 7.33333C6.91675 8.34586 7.73756 9.16667 8.75008 9.16667Z" stroke="white" stroke-width="1.5" stroke-linecap="round" stroke-linejoin="round"/>
<path d="M2.94751 17.3708L7.46668 14.3366C8.19084 13.8508 9.23584 13.9058 9.88668 14.465L10.1892 14.7308C10.9042 15.345 12.0592 15.345 12.7742 14.7308L16.5875 11.4583C17.3025 10.8441 18.4575 10.8441 19.1725 11.4583L20.6667 12.7416" stroke="white" stroke-width="1.5" stroke-linecap="round" stroke-linejoin="round"/>
</svg>
