<svg width="23" height="22" viewBox="0 0 23 22" fill="none" xmlns="http://www.w3.org/2000/svg">
<path d="M11.4999 14.2083C13.5258 14.2083 15.1666 12.5675 15.1666 10.5417V5.50001C15.1666 3.47418 13.5258 1.83334 11.4999 1.83334C9.47409 1.83334 7.83325 3.47418 7.83325 5.50001V10.5417C7.83325 12.5675 9.47409 14.2083 11.4999 14.2083Z" stroke="white" stroke-width="1.5" stroke-linecap="round" stroke-linejoin="round"/>
<path d="M4.48755 8.84583V10.4042C4.48755 14.2725 7.63172 17.4167 11.5 17.4167C15.3684 17.4167 18.5125 14.2725 18.5125 10.4042V8.84583" stroke="white" stroke-width="1.5" stroke-linecap="round" stroke-linejoin="round"/>
<path d="M10.2258 5.89417C11.0508 5.59167 11.9492 5.59167 12.7742 5.89417" stroke="white" stroke-width="1.5" stroke-linecap="round" stroke-linejoin="round"/>
<path d="M10.7666 7.83752C11.2524 7.70919 11.7566 7.70919 12.2424 7.83752" stroke="white" stroke-width="1.5" stroke-linecap="round" stroke-linejoin="round"/>
<path d="M11.5 17.4167V20.1667" stroke="white" stroke-width="1.5" stroke-linecap="round" stroke-linejoin="round"/>
</svg>
